<svg width="40" height="40" viewBox="0 0 40 40" fill="none" xmlns="http://www.w3.org/2000/svg">
<path d="M37.6 20.417C37.6 19.117 37.4833 17.867 37.2667 16.667H20V23.7587H29.8667C29.4417 26.0503 28.15 27.992 26.2083 29.292V33.892H32.1333C35.6 30.7003 37.6 26.0003 37.6 20.417Z" fill="#4285F4"/>
<path d="M20 38.3334C24.95 38.3334 29.1 36.6917 32.1333 33.8917L26.2083 29.2917C24.5667 30.3917 22.4667 31.0417 20 31.0417C15.225 31.0417 11.1833 27.8167 9.74167 23.4834H3.61667V28.2334C6.63334 34.2251 12.8333 38.3334 20 38.3334Z" fill="#34A853"/>
<path d="M9.74166 23.4833C9.37499 22.3833 9.16666 21.2083 9.16666 19.9999C9.16666 18.7916 9.37499 17.6166 9.74166 16.5166V11.7666H3.61666C2.33332 14.3214 1.66553 17.141 1.66666 19.9999C1.66666 22.9583 2.37499 25.7583 3.61666 28.2333L9.74166 23.4833Z" fill="#FBBC05"/>
<path d="M20 8.95866C22.6917 8.95866 25.1083 9.88366 27.0083 11.7003L32.2667 6.44199C29.0917 3.48366 24.9417 1.66699 20 1.66699C12.8333 1.66699 6.63334 5.77533 3.61667 11.767L9.74167 16.517C11.1833 12.1837 15.225 8.95866 20 8.95866Z" fill="#EA4335"/>
</svg>
