<svg width="48" height="49" viewBox="0 0 48 49" fill="none" xmlns="http://www.w3.org/2000/svg">
<g clip-path="url(#clip0_563_659)">
<path d="M48 24.0146C48 10.7598 37.2548 0.0146484 24 0.0146484C10.7452 0.0146484 0 10.7598 0 24.0146C0 35.9936 8.77641 45.9226 20.25 47.7231V30.9521H14.1562V24.0146H20.25V18.7271C20.25 12.7121 23.8331 9.38965 29.3152 9.38965C31.9402 9.38965 34.6875 9.8584 34.6875 9.8584V15.7646H31.6613C28.68 15.7646 27.75 17.6148 27.75 19.5146V24.0146H34.4062L33.3422 30.9521H27.75V47.7231C39.2236 45.9226 48 35.9936 48 24.0146Z" fill="#FAFAFA"/>
</g>
<defs>
<clipPath id="clip0_563_659">
<rect width="48" height="48" fill="white" transform="translate(0 0.0146484)"/>
</clipPath>
</defs>
</svg>
