<svg width="48" height="49" viewBox="0 0 48 49" fill="none" xmlns="http://www.w3.org/2000/svg">
<g clip-path="url(#clip0_563_660)">
<path d="M24 4.33652C30.4125 4.33652 31.1719 4.36465 33.6938 4.47715C36.0375 4.58027 37.3031 4.97402 38.1469 5.30215C39.2625 5.7334 40.0688 6.2584 40.9031 7.09277C41.7469 7.93652 42.2625 8.7334 42.6938 9.84902C43.0219 10.6928 43.4156 11.9678 43.5188 14.3021C43.6313 16.8334 43.6594 17.5928 43.6594 23.9959C43.6594 30.4084 43.6313 31.1678 43.5188 33.6897C43.4156 36.0334 43.0219 37.299 42.6938 38.1428C42.2625 39.2584 41.7375 40.0647 40.9031 40.899C40.0594 41.7428 39.2625 42.2584 38.1469 42.6897C37.3031 43.0178 36.0281 43.4115 33.6938 43.5146C31.1625 43.6271 30.4031 43.6553 24 43.6553C17.5875 43.6553 16.8281 43.6271 14.3063 43.5146C11.9625 43.4115 10.6969 43.0178 9.85313 42.6897C8.7375 42.2584 7.93125 41.7334 7.09688 40.899C6.25313 40.0553 5.7375 39.2584 5.30625 38.1428C4.97813 37.299 4.58438 36.024 4.48125 33.6897C4.36875 31.1584 4.34063 30.399 4.34063 23.9959C4.34063 17.5834 4.36875 16.824 4.48125 14.3021C4.58438 11.9584 4.97813 10.6928 5.30625 9.84902C5.7375 8.7334 6.2625 7.92715 7.09688 7.09277C7.94063 6.24902 8.7375 5.7334 9.85313 5.30215C10.6969 4.97402 11.9719 4.58027 14.3063 4.47715C16.8281 4.36465 17.5875 4.33652 24 4.33652ZM24 0.0146484C17.4844 0.0146484 16.6688 0.0427734 14.1094 0.155273C11.5594 0.267773 9.80625 0.680273 8.2875 1.2709C6.70312 1.88965 5.3625 2.70527 4.03125 4.0459C2.69063 5.37715 1.875 6.71777 1.25625 8.29277C0.665625 9.8209 0.253125 11.5646 0.140625 14.1146C0.028125 16.6834 0 17.499 0 24.0146C0 30.5303 0.028125 31.3459 0.140625 33.9053C0.253125 36.4553 0.665625 38.2084 1.25625 39.7271C1.875 41.3115 2.69063 42.6521 4.03125 43.9834C5.3625 45.3146 6.70313 46.1396 8.27813 46.749C9.80625 47.3396 11.55 47.7521 14.1 47.8646C16.6594 47.9771 17.475 48.0053 23.9906 48.0053C30.5063 48.0053 31.3219 47.9771 33.8813 47.8646C36.4313 47.7521 38.1844 47.3396 39.7031 46.749C41.2781 46.1396 42.6188 45.3146 43.95 43.9834C45.2812 42.6521 46.1063 41.3115 46.7156 39.7365C47.3063 38.2084 47.7188 36.4646 47.8313 33.9146C47.9438 31.3553 47.9719 30.5396 47.9719 24.024C47.9719 17.5084 47.9438 16.6928 47.8313 14.1334C47.7188 11.5834 47.3063 9.83027 46.7156 8.31152C46.125 6.71777 45.3094 5.37715 43.9688 4.0459C42.6375 2.71465 41.2969 1.88965 39.7219 1.28027C38.1938 0.689648 36.45 0.277148 33.9 0.164648C31.3313 0.0427734 30.5156 0.0146484 24 0.0146484Z" fill="#FAFAFA"/>
<path d="M24 11.6865C17.1938 11.6865 11.6719 17.2084 11.6719 24.0146C11.6719 30.8209 17.1938 36.3428 24 36.3428C30.8062 36.3428 36.3281 30.8209 36.3281 24.0146C36.3281 17.2084 30.8062 11.6865 24 11.6865ZM24 32.0115C19.5844 32.0115 16.0031 28.4303 16.0031 24.0146C16.0031 19.599 19.5844 16.0178 24 16.0178C28.4156 16.0178 31.9969 19.599 31.9969 24.0146C31.9969 28.4303 28.4156 32.0115 24 32.0115Z" fill="#FAFAFA"/>
<path d="M39.6937 11.1994C39.6937 12.7932 38.4 14.0775 36.8156 14.0775C35.2219 14.0775 33.9375 12.7838 33.9375 11.1994C33.9375 9.60567 35.2313 8.32129 36.8156 8.32129C38.4 8.32129 39.6937 9.61504 39.6937 11.1994Z" fill="#FAFAFA"/>
</g>
<defs>
<clipPath id="clip0_563_660">
<rect width="48" height="48" fill="white" transform="translate(0 0.0146484)"/>
</clipPath>
</defs>
</svg>
