<svg width="1440" height="176" viewBox="0 0 1440 176" fill="none" xmlns="http://www.w3.org/2000/svg">
<rect width="1440" height="176" fill="#0D1717"/>
<g clip-path="url(#clip0_595_1066)">
<path d="M448.302 126.557C448.125 126.393 448.018 126.167 448.004 125.926C447.989 125.685 448.069 125.448 448.226 125.264L454.009 118.648C454.074 118.562 454.158 118.491 454.253 118.44C454.349 118.388 454.454 118.358 454.562 118.351C454.67 118.343 454.779 118.359 454.88 118.397C454.982 118.435 455.074 118.494 455.151 118.571C458.93 121.832 463.707 123.709 468.696 123.892C474.099 123.892 477.142 121.384 477.142 117.733C477.142 114.691 475.316 112.789 469.153 111.953L466.405 111.572C455.905 110.127 450.043 105.184 450.043 96.0567C450.043 86.5481 457.196 80.2342 468.383 80.2342C474.671 80.1 480.834 81.9937 485.961 85.6348C486.418 85.9387 486.493 86.2443 486.114 86.7747L481.477 93.698C481.422 93.7837 481.352 93.8577 481.268 93.9157C481.185 93.9736 481.091 94.0144 480.992 94.0355C480.893 94.0566 480.79 94.0576 480.691 94.0386C480.591 94.0196 480.496 93.9808 480.412 93.9246C476.895 91.4267 472.704 90.0504 468.39 89.9763C463.825 89.9763 461.466 92.335 461.466 95.607C461.466 98.5716 463.597 100.474 469.537 101.31L472.285 101.693C482.933 103.138 488.569 108.005 488.569 117.361C488.569 126.716 481.645 133.636 468.251 133.636C460.171 133.629 452.334 130.435 448.302 126.557Z" fill="#FAFAFA"/>
<path d="M494.569 81.8304C494.563 81.7291 494.578 81.6276 494.614 81.5327C494.65 81.4378 494.706 81.3516 494.778 81.2799C494.85 81.2082 494.936 81.1525 495.031 81.1166C495.127 81.0808 495.228 81.0654 495.329 81.0717H528.511C528.612 81.0657 528.714 81.0812 528.809 81.1172C528.904 81.1532 528.99 81.2089 529.062 81.2805C529.134 81.3522 529.189 81.4382 529.226 81.533C529.262 81.6278 529.278 81.7291 529.272 81.8304V89.9692C529.278 90.0706 529.262 90.1721 529.226 90.2671C529.19 90.3621 529.134 90.4484 529.062 90.5202C528.991 90.5921 528.904 90.6479 528.809 90.684C528.714 90.7201 528.613 90.7356 528.511 90.7296H506.211C506.149 90.7207 506.085 90.7264 506.026 90.7462C505.966 90.766 505.912 90.7994 505.868 90.8437C505.824 90.888 505.79 90.942 505.771 91.0015C505.751 91.061 505.745 91.1242 505.754 91.1863V101.454C505.745 101.516 505.751 101.579 505.771 101.638C505.79 101.698 505.824 101.752 505.868 101.796C505.912 101.841 505.966 101.874 506.026 101.894C506.085 101.914 506.149 101.919 506.211 101.91H524.778C524.879 101.904 524.981 101.92 525.076 101.956C525.171 101.992 525.257 102.048 525.329 102.12C525.401 102.192 525.457 102.278 525.493 102.373C525.529 102.468 525.544 102.569 525.538 102.671V110.739C525.544 110.841 525.529 110.942 525.493 111.037C525.457 111.132 525.401 111.218 525.329 111.29C525.257 111.362 525.171 111.418 525.076 111.454C524.981 111.49 524.879 111.506 524.778 111.5H506.211C506.149 111.491 506.085 111.496 506.026 111.516C505.966 111.536 505.912 111.569 505.868 111.614C505.824 111.658 505.79 111.712 505.771 111.771C505.751 111.831 505.745 111.894 505.754 111.956V122.673C505.745 122.735 505.751 122.799 505.771 122.858C505.79 122.918 505.824 122.972 505.868 123.016C505.912 123.06 505.966 123.094 506.026 123.113C506.085 123.133 506.149 123.139 506.211 123.13H528.511C528.612 123.124 528.714 123.14 528.809 123.176C528.904 123.212 528.99 123.267 529.062 123.339C529.134 123.411 529.189 123.497 529.226 123.591C529.262 123.686 529.278 123.787 529.272 123.889V132.027C529.278 132.129 529.262 132.23 529.226 132.325C529.19 132.42 529.134 132.507 529.062 132.579C528.991 132.65 528.904 132.706 528.809 132.742C528.714 132.778 528.613 132.794 528.511 132.788H495.329C495.228 132.794 495.126 132.778 495.031 132.742C494.936 132.706 494.85 132.65 494.778 132.579C494.706 132.507 494.65 132.42 494.614 132.325C494.578 132.23 494.563 132.129 494.569 132.027V81.8304Z" fill="#FAFAFA"/>
<path d="M564.65 132.793C564.4 132.828 564.145 132.77 563.935 132.63C563.725 132.49 563.573 132.277 563.51 132.033L554.607 113.094H547.682C547.62 113.085 547.557 113.091 547.497 113.111C547.438 113.131 547.384 113.164 547.34 113.208C547.295 113.253 547.262 113.307 547.242 113.366C547.222 113.426 547.216 113.489 547.225 113.551V132.033C547.231 132.134 547.216 132.236 547.18 132.331C547.144 132.426 547.088 132.512 547.016 132.584C546.944 132.656 546.858 132.711 546.763 132.747C546.668 132.784 546.566 132.799 546.465 132.793H536.799C536.698 132.799 536.596 132.784 536.501 132.747C536.406 132.711 536.32 132.656 536.248 132.584C536.176 132.512 536.12 132.426 536.084 132.331C536.048 132.236 536.032 132.134 536.038 132.033V81.8304C536.032 81.7291 536.048 81.6276 536.084 81.5327C536.12 81.4378 536.176 81.3516 536.248 81.2799C536.32 81.2082 536.406 81.1525 536.501 81.1166C536.596 81.0808 536.698 81.0654 536.799 81.0717H557.422C567.997 81.0717 574.999 87.6877 574.999 97.1191C575.087 100.163 574.256 103.162 572.614 105.726C570.972 108.291 568.594 110.301 565.792 111.494L575.987 131.88C576.048 131.971 576.083 132.078 576.087 132.188C576.091 132.299 576.063 132.408 576.007 132.503C575.952 132.598 575.87 132.676 575.772 132.727C575.674 132.778 575.564 132.8 575.454 132.791L564.65 132.793ZM563.814 97.1208C563.814 93.2428 561.074 90.7314 556.812 90.7314H547.681C547.618 90.7225 547.555 90.7281 547.496 90.7479C547.436 90.7677 547.382 90.8011 547.338 90.8454C547.293 90.8897 547.26 90.9438 547.24 91.0032C547.22 91.0627 547.215 91.1259 547.224 91.188V103.131C547.215 103.193 547.22 103.256 547.24 103.316C547.26 103.375 547.293 103.429 547.338 103.473C547.382 103.518 547.436 103.551 547.496 103.571C547.555 103.591 547.618 103.596 547.681 103.587H556.815C561.074 103.586 563.814 101.076 563.814 97.1191V97.1208Z" fill="#FAFAFA"/>
<path d="M581.999 81.8304C581.993 81.7291 582.009 81.6276 582.045 81.5327C582.081 81.4378 582.137 81.3516 582.209 81.2799C582.281 81.2082 582.367 81.1525 582.462 81.1166C582.557 81.0808 582.659 81.0654 582.76 81.0717H592.426C592.527 81.0654 592.629 81.0808 592.724 81.1166C592.819 81.1525 592.905 81.2082 592.977 81.2799C593.049 81.3516 593.105 81.4378 593.141 81.5327C593.177 81.6276 593.192 81.7291 593.186 81.8304V132.031C593.192 132.132 593.177 132.234 593.141 132.329C593.105 132.424 593.049 132.51 592.977 132.582C592.905 132.654 592.819 132.71 592.724 132.746C592.629 132.782 592.527 132.797 592.426 132.791H582.76C582.659 132.797 582.557 132.782 582.462 132.746C582.367 132.71 582.281 132.654 582.209 132.582C582.137 132.51 582.081 132.424 582.045 132.329C582.009 132.234 581.993 132.132 581.999 132.031V81.8304Z" fill="#FAFAFA"/>
<path d="M601.557 81.8304C601.551 81.7291 601.566 81.6276 601.603 81.5327C601.639 81.4378 601.695 81.3516 601.767 81.2799C601.838 81.2082 601.925 81.1525 602.02 81.1166C602.115 81.0808 602.216 81.0654 602.318 81.0717H635.496C635.597 81.0657 635.699 81.0812 635.794 81.1172C635.889 81.1532 635.975 81.2089 636.047 81.2805C636.118 81.3522 636.174 81.4382 636.211 81.533C636.247 81.6278 636.262 81.7291 636.257 81.8304V89.9692C636.263 90.0706 636.247 90.1721 636.211 90.2671C636.175 90.3621 636.119 90.4484 636.047 90.5202C635.975 90.5921 635.889 90.6479 635.794 90.684C635.699 90.7201 635.597 90.7356 635.496 90.7296H613.199C613.137 90.7207 613.074 90.7264 613.014 90.7462C612.955 90.766 612.901 90.7994 612.856 90.8437C612.812 90.888 612.779 90.942 612.759 91.0015C612.739 91.061 612.733 91.1242 612.742 91.1863V101.454C612.733 101.516 612.739 101.579 612.759 101.638C612.779 101.698 612.812 101.752 612.856 101.796C612.901 101.841 612.955 101.874 613.014 101.894C613.074 101.914 613.137 101.919 613.199 101.91H631.764C631.866 101.904 631.967 101.92 632.062 101.956C632.157 101.992 632.243 102.048 632.315 102.12C632.387 102.192 632.443 102.278 632.479 102.373C632.515 102.468 632.531 102.569 632.525 102.671V110.739C632.531 110.841 632.515 110.942 632.479 111.037C632.443 111.132 632.387 111.218 632.315 111.29C632.243 111.362 632.157 111.418 632.062 111.454C631.967 111.49 631.866 111.506 631.764 111.5H613.199C613.137 111.491 613.074 111.496 613.014 111.516C612.955 111.536 612.901 111.569 612.856 111.614C612.812 111.658 612.779 111.712 612.759 111.771C612.739 111.831 612.733 111.894 612.742 111.956V122.673C612.733 122.735 612.739 122.799 612.759 122.858C612.779 122.918 612.812 122.972 612.856 123.016C612.901 123.06 612.955 123.094 613.014 123.113C613.074 123.133 613.137 123.139 613.199 123.13H635.494C635.596 123.124 635.697 123.14 635.792 123.176C635.887 123.212 635.973 123.267 636.045 123.339C636.117 123.411 636.173 123.497 636.209 123.591C636.245 123.686 636.261 123.787 636.255 123.889V132.027C636.261 132.129 636.245 132.23 636.209 132.325C636.173 132.42 636.117 132.507 636.046 132.579C635.974 132.65 635.887 132.706 635.792 132.742C635.697 132.778 635.596 132.794 635.494 132.788H602.318C602.216 132.794 602.115 132.778 602.02 132.742C601.925 132.706 601.838 132.65 601.766 132.579C601.695 132.507 601.639 132.42 601.603 132.325C601.567 132.23 601.551 132.129 601.557 132.027V81.8304Z" fill="#FAFAFA"/>
<path d="M760.59 132.855L728.386 58H703.865L671.707 132.847L716.129 160.991L760.592 132.847L760.59 132.855ZM680.804 132.855H698.919L704.655 117.713L716.127 87.4271L720.517 99.006L723.564 107.042H714.178L707.779 123.934H729.966L733.348 132.86H698.919L710.376 151.596L680.804 132.855ZM721.882 151.594L733.348 132.855H751.488L721.882 151.594Z" fill="#FAFAFA"/>
<path d="M979.924 102.429C979.851 102.54 979.789 102.658 979.739 102.781C977.643 108.044 975.574 113.307 973.477 118.574C972.84 120.128 972.177 121.664 971.588 123.231C971.501 123.582 971.301 123.894 971.017 124.119C970.734 124.343 970.385 124.468 970.023 124.472C967.291 124.505 964.584 124.507 961.878 124.472C961.473 124.464 961.082 124.326 960.762 124.079C960.441 123.832 960.209 123.488 960.098 123.099C957.577 117.141 955.031 111.206 952.509 105.256C952.111 104.346 951.793 103.411 951.341 102.467V131.149C951.341 132.313 951.129 132.644 949.988 132.694C947.68 132.805 945.372 132.824 943.064 132.85C942.257 132.86 941.45 132.818 940.649 132.725C939.529 132.587 939.394 132.398 939.394 131.31V82.5395C939.394 81.5438 939.617 81.2692 940.63 81.1421C941.323 81.0512 942.02 81.0024 942.718 80.9962C945.265 80.9859 947.786 80.9722 950.308 81.0288C951.155 81.0492 951.995 81.1885 952.803 81.4425C953.264 81.6118 953.643 81.9499 953.864 82.3884C956.545 88.6714 959.252 94.9613 961.852 101.282C963.398 105.004 964.772 108.789 966.204 112.494C966.236 112.377 966.281 112.265 966.338 112.159C968.328 107.065 970.288 101.955 972.361 96.8805C974.298 92.0927 976.342 87.3479 978.279 82.5635C978.405 82.1585 978.656 81.8033 978.994 81.5478C979.333 81.2922 979.744 81.1492 980.168 81.1387C981.493 81.0552 982.821 81.0077 984.149 80.9962C985.866 80.9773 987.599 80.9807 989.301 81.0254C989.945 81.0663 990.583 81.1622 991.211 81.3121C991.458 81.3498 991.681 81.4839 991.831 81.6853C991.98 81.8866 992.043 82.1387 992.007 82.3867C991.98 84.1274 992.007 85.8664 992.007 87.6071V131.226C992.007 132.302 991.767 132.652 990.707 132.704C988.453 132.812 986.17 132.836 983.888 132.858C983.001 132.863 982.115 132.817 981.234 132.721C980.252 132.618 980.068 132.378 980.068 131.36V102.451C980.023 102.448 979.979 102.442 979.934 102.432L979.924 102.429Z" fill="#FAFAFA"/>
<path d="M884.939 92.1891H873.272C872.457 92.1891 872.196 91.9882 872.06 91.1762C871.97 90.666 871.921 90.1493 871.914 89.6312C871.901 87.4774 871.901 85.3235 871.914 83.1697C871.928 82.7558 871.966 82.3432 872.027 81.9337C872.125 81.1406 872.309 80.9844 873.101 80.9844H908.594C909.416 80.9844 909.624 81.144 909.705 81.9715C909.784 82.7942 909.82 83.6204 909.815 84.4469C909.811 86.5984 909.772 88.7496 909.698 90.8998C909.655 91.947 909.324 92.1856 908.293 92.1856H896.895C896.885 92.4449 896.866 92.644 896.866 92.8465V131.128C896.866 132.33 896.694 132.637 895.473 132.704C893.186 132.826 890.891 132.836 888.604 132.855C887.715 132.858 886.827 132.807 885.945 132.704C885.138 132.613 884.942 132.335 884.942 131.518V92.1891H884.939Z" fill="#FAFAFA"/>
<path d="M917.763 106.923V82.5619C917.763 81.5061 917.957 81.2486 919.023 81.1422C919.993 81.0417 920.968 80.993 921.943 80.9962C923.992 81.01 926.037 81.0701 928.086 81.1267C928.354 81.1482 928.618 81.2 928.874 81.2812C929.131 81.3283 929.36 81.4708 929.515 81.6801C929.671 81.8894 929.741 82.1499 929.712 82.4091C929.692 85.5574 929.702 88.7058 929.702 91.8507V131.18C929.702 132.309 929.503 132.646 928.39 132.699C926.078 132.814 923.763 132.831 921.448 132.85C920.58 132.856 919.713 132.807 918.852 132.704C917.955 132.601 917.771 132.345 917.771 131.458V106.923H917.763Z" fill="#FAFAFA"/>
<path d="M827.087 81.0089C836.433 81.0089 845.777 81.0209 855.123 80.9951C855.897 81.0002 856.639 81.3027 857.196 81.84C857.753 82.3772 858.081 83.108 858.113 83.8808C858.079 85.7245 858.113 87.5682 858.096 89.4102C858.056 90.0713 857.787 90.6978 857.335 91.1819C856.883 91.666 856.277 91.9774 855.62 92.0625C854.903 92.1294 854.18 92.1792 853.463 92.1792C835.495 92.1872 817.529 92.1872 799.564 92.1792C798.936 92.2478 798.301 92.1303 797.739 91.8413C797.178 91.5522 796.713 91.1044 796.404 90.5535C796.199 90.1551 796.087 89.7156 796.076 89.2677C796.038 87.4635 796.057 85.6627 796.061 83.8602C796.069 83.1039 796.375 82.3813 796.91 81.8472C797.446 81.3132 798.17 81.0104 798.927 81.0037L827.087 81.0089Z" fill="#FAFAFA"/>
<path d="M833.279 101.397C833.504 101.387 833.688 101.372 833.874 101.372H854.946C855.629 101.306 856.313 101.486 856.875 101.88C857.437 102.274 857.84 102.855 858.011 103.519C858.086 103.818 858.12 104.126 858.113 104.434C858.113 106.195 858.123 107.957 858.099 109.715C858.082 110.43 857.791 111.112 857.286 111.62C856.78 112.128 856.1 112.423 855.384 112.444C848.132 112.462 840.88 112.468 833.628 112.46C833.525 112.46 833.424 112.444 833.284 112.43V101.394L833.279 101.397Z" fill="#FAFAFA"/>
<path d="M833.268 132.807V121.79C833.496 121.776 833.695 121.755 833.896 121.755H854.903C855.585 121.674 856.274 121.842 856.842 122.228C857.41 122.614 857.819 123.193 857.995 123.856C858.074 124.152 858.112 124.457 858.106 124.763C858.106 126.564 858.12 128.368 858.091 130.165C858.042 130.856 857.745 131.506 857.255 131.995C856.764 132.484 856.113 132.779 855.422 132.826C848.152 132.836 840.881 132.836 833.611 132.826C833.51 132.826 833.41 132.816 833.268 132.805V132.807Z" fill="#FAFAFA"/>
<path d="M820.907 121.797V132.833H799C798.613 132.84 798.228 132.769 797.869 132.624C797.51 132.48 797.184 132.264 796.91 131.991C796.636 131.718 796.419 131.393 796.273 131.034C796.127 130.676 796.054 130.292 796.06 129.905V124.566C796.073 123.837 796.366 123.141 796.877 122.621C797.388 122.101 798.079 121.796 798.808 121.769C806.014 121.759 813.221 121.759 820.428 121.769C820.569 121.769 820.71 121.785 820.904 121.799L820.907 121.797Z" fill="#FAFAFA"/>
<path d="M820.885 112.461H820.131C813.131 112.461 806.131 112.43 799.131 112.48C798.721 112.483 798.314 112.403 797.936 112.246C797.557 112.09 797.213 111.859 796.925 111.567C796.637 111.275 796.41 110.929 796.258 110.548C796.106 110.168 796.032 109.76 796.04 109.351C796.122 107.634 796.053 105.917 796.06 104.201C796.077 103.472 796.37 102.778 796.88 102.257C797.391 101.737 798.08 101.43 798.808 101.399C806.058 101.383 813.306 101.38 820.554 101.389C820.655 101.389 820.753 101.404 820.889 101.418V112.465L820.885 112.461Z" fill="#FAFAFA"/>
</g>
<defs>
<clipPath id="clip0_595_1066">
<rect width="544" height="103" fill="white" transform="translate(448 58)"/>
</clipPath>
</defs>
</svg>
