<svg width="48" height="49" viewBox="0 0 48 49" fill="none" xmlns="http://www.w3.org/2000/svg">
<g clip-path="url(#clip0_563_661)">
<path d="M15.1003 43.5151C33.2091 43.5151 43.1166 28.5085 43.1166 15.4989C43.1166 15.077 43.1072 14.6457 43.0884 14.2239C45.0158 12.8301 46.679 11.1036 48 9.12573C46.205 9.92434 44.2993 10.4459 42.3478 10.6726C44.4026 9.44095 45.9411 7.50608 46.6781 5.22667C44.7451 6.37225 42.6312 7.18036 40.4269 7.61636C38.9417 6.03826 36.978 4.99337 34.8394 4.64324C32.7008 4.29311 30.5064 4.65724 28.5955 5.67933C26.6846 6.70142 25.1636 8.32455 24.2677 10.2978C23.3718 12.271 23.1509 14.4844 23.6391 16.5957C19.725 16.3993 15.8959 15.3825 12.4 13.6113C8.90405 11.8401 5.81939 9.35401 3.34594 6.31417C2.0888 8.48162 1.70411 11.0464 2.27006 13.4873C2.83601 15.9282 4.31013 18.062 6.39281 19.4551C4.82926 19.4055 3.29995 18.9845 1.93125 18.227V18.3489C1.92985 20.6234 2.7162 22.8283 4.15662 24.5887C5.59704 26.349 7.60265 27.5563 9.8325 28.0051C8.38411 28.4014 6.86396 28.4591 5.38969 28.1739C6.01891 30.13 7.24315 31.8409 8.89154 33.0678C10.5399 34.2947 12.5302 34.9763 14.5847 35.0176C11.0968 37.7574 6.78835 39.2434 2.35313 39.2364C1.56657 39.2352 0.780798 39.1869 0 39.092C4.50571 41.9826 9.74706 43.5179 15.1003 43.5151Z" fill="#FAFAFA"/>
</g>
<defs>
<clipPath id="clip0_563_661">
<rect width="48" height="48" fill="white" transform="translate(0 0.0146484)"/>
</clipPath>
</defs>
</svg>
